<svg width="2476" height="2475" xmlns="http://www.w3.org/2000/svg" xmlns:xlink="http://www.w3.org/1999/xlink" xml:space="preserve" overflow="hidden"><defs><linearGradient x1="1556.08" y1="-255.054" x2="2842.18" y2="2731.01" gradientUnits="userSpaceOnUse" spreadMethod="reflect" id="fill0"><stop offset="0" stop-color="#ECEEF0" stop-opacity="0.901961"/><stop offset="0.04762" stop-color="#EBEDF0" stop-opacity="0.901961"/><stop offset="0.09524" stop-color="#EBEDF1" stop-opacity="0.901961"/><stop offset="0.14286" stop-color="#EBEDF1" stop-opacity="0.901961"/><stop offset="0.19048" stop-color="#EBEDF2" stop-opacity="0.901961"/><stop offset="0.2381" stop-color="#EAEDF2" stop-opacity="0.901961"/><stop offset="0.28571" stop-color="#E9EDF3" stop-opacity="0.901961"/><stop offset="0.33333" stop-color="#E9ECF3" stop-opacity="0.901961"/><stop offset="0.38095" stop-color="#E8ECF4" stop-opacity="0.901961"/><stop offset="0.42857" stop-color="#E7EBF4" stop-opacity="0.901961"/><stop offset="0.47619" stop-color="#E6EBF4" stop-opacity="0.901961"/><stop offset="0.52381" stop-color="#E5EBF5" stop-opacity="0.901961"/><stop offset="0.57143" stop-color="#E4EAF5" stop-opacity="0.901961"/><stop offset="0.61905" stop-color="#E3E9F5" stop-opacity="0.901961"/><stop offset="0.66667" stop-color="#E1E9F6" stop-opacity="0.901961"/><stop offset="0.71429" stop-color="#E0E8F6" stop-opacity="0.901961"/><stop offset="0.76191" stop-color="#DEE7F6" stop-opacity="0.901961"/><stop offset="0.80952" stop-color="#DDE7F6" stop-opacity="0.901961"/><stop offset="0.85714" stop-color="#DBE6F6" stop-opacity="0.901961"/><stop offset="0.90476" stop-color="#D9E5F6" stop-opacity="0.901961"/><stop offset="0.95238" stop-color="#D7E4F6" stop-opacity="0.901961"/><stop offset="1" stop-color="#D6E4F7" stop-opacity="0.901961"/></linearGradient></defs><g transform="translate(-961 0)"><path d="M1894.51 127.576C2046.25-33.9745 2300.27-41.9793 2461.89 109.698 2465.24 112.849 2468.55 116.062 2471.8 119.33L2471.8 119.33C2550.24 198.191 2657.91 240.98 2769.09 237.476L2769.09 237.476C2990.66 230.389 3176.04 404.191 3183.12 625.67 3183.27 630.364 3183.34 635.063 3183.32 639.76L3183.32 639.76C3183 750.973 3228.88 857.33 3309.98 933.453L3309.98 933.453C3471.6 1085.13 3479.6 1339.04 3327.86 1500.6 3324.71 1503.95 3321.5 1507.26 3318.23 1510.51L3318.23 1510.51C3239.34 1588.92 3196.53 1696.53 3200.03 1807.69L3200.03 1807.69C3207.14 2029.17 3033.28 2214.48 2811.71 2221.57 2807.01 2221.72 2802.29 2221.79 2797.59 2221.77L2797.59 2221.77C2686.34 2221.45 2579.94 2267.31 2503.78 2348.37L2503.78 2348.37C2352.04 2509.93 2098.03 2517.93 1936.4 2366.26 1933.05 2363.1 1929.75 2359.89 1926.49 2356.63L1926.49 2356.63C1848.06 2277.77 1740.39 2234.97 1629.18 2238.48L1629.18 2238.48C1407.62 2245.59 1222.24 2071.79 1215.15 1850.31 1214.99 1845.62 1214.92 1840.9 1214.93 1836.2L1214.93 1836.2C1215.26 1724.99 1169.39 1618.63 1088.28 1542.51L1088.28 1542.51C926.661 1390.83 918.659 1136.92 1070.4 975.364 1073.56 972.01 1076.76 968.707 1080.02 965.452L1080.02 965.452C1158.91 887.048 1201.73 779.427 1198.23 668.277L1198.23 668.277C1191.11 446.797 1364.99 261.493 1586.55 254.392 1591.25 254.24 1595.97 254.174 1600.66 254.187L1600.66 254.187C1711.92 254.515 1818.32 208.667 1894.48 127.588Z" fill="url(#fill0)" fill-rule="evenodd"/><g><g><g><path d="M876.75 1137.95C867.427 1138.01 858.155 1136.49 849.351 1133.42 840.357 1130.09 832.24 1124.78 825.606 1117.86L562.581 854.831C548.538 841.599 540.871 822.969 541.539 803.687 541.951 784.618 549.453 766.382 562.581 752.544 576.241 738.348 594.976 730.147 614.675 729.748 634.223 728.931 653.178 736.572 666.695 750.717L803.687 887.709 803.687 365.312C803.687 324.961 836.397 292.25 876.75 292.25 917.102 292.25 949.812 324.961 949.812 365.312L949.812 887.709 1086.8 750.717C1100.34 736.543 1119.32 728.874 1138.9 729.675 1158.59 730.073 1177.31 738.304 1190.92 752.544 1204 766.411 1211.5 784.625 1211.96 803.687 1212.68 822.976 1205 841.629 1190.92 854.831L927.894 1117.86C921.23 1124.75 913.12 1130.06 904.148 1133.42 895.352 1136.53 886.08 1138.07 876.75 1137.95M438.375 1461.25C357.772 1461.01 292.49 1395.73 292.25 1315.12L292.25 1169C291.599 1129.3 323.255 1096.59 362.955 1095.94 363.741 1095.92 364.527 1095.92 365.312 1095.94 404.931 1095.21 437.642 1126.73 438.375 1166.35 438.391 1167.23 438.391 1168.12 438.375 1169L438.375 1315.12 1315.12 1315.12 1315.12 1169C1315.12 1128.65 1347.83 1095.94 1388.19 1095.94 1428.54 1095.94 1461.25 1128.65 1461.25 1169L1461.25 1315.12C1461.25 1395.83 1395.83 1461.25 1315.12 1461.25Z" fill="#00629E" transform="matrix(1.00086 0 0 1 1322.5 360.75)"/></g></g></g></g></svg>